<svg xmlns="http://www.w3.org/2000/svg" aria-hidden="true" style="width:0;height:0;position:absolute;overflow:hidden"><defs><symbol id="plus" viewBox="0 0 20 20"><path d="M9.003 14.987h1.994v-3.99h3.99V9.003h-3.99v-3.99H9.003v3.99h-3.99v1.994h3.99v3.99ZM10 19.973a9.712 9.712 0 0 1-3.89-.785 10.072 10.072 0 0 1-3.166-2.132A10.071 10.071 0 0 1 .812 13.89 9.711 9.711 0 0 1 .027 10c0-1.38.261-2.676.785-3.89a10.072 10.072 0 0 1 2.132-3.166A10.072 10.072 0 0 1 6.11.812 9.712 9.712 0 0 1 10 .027c1.38 0 2.676.261 3.89.785a10.071 10.071 0 0 1 3.166 2.132 10.072 10.072 0 0 1 2.132 3.166 9.712 9.712 0 0 1 .785 3.89c0 1.38-.261 2.676-.785 3.89a10.071 10.071 0 0 1-2.132 3.166 10.071 10.071 0 0 1-3.166 2.132 9.711 9.711 0 0 1-3.89.785Zm0-1.994c2.227 0 4.114-.773 5.66-2.32 1.546-1.545 2.319-3.432 2.319-5.659s-.773-4.114-2.32-5.66C14.115 2.794 12.228 2.021 10 2.021s-4.114.773-5.66 2.32C2.794 5.885 2.021 7.772 2.021 10s.773 4.114 2.32 5.66c1.545 1.546 3.432 2.319 5.659 2.319Z" fill="#4A5568"/></symbol></defs></svg>