<svg xmlns="http://www.w3.org/2000/svg" aria-hidden="true" style="width:0;height:0;position:absolute;overflow:hidden"><defs><symbol id="minus" viewBox="0 0 21 20"><path d="M5.88 10.997h9.974V9.003H5.88v1.994Zm4.987 8.976a9.712 9.712 0 0 1-3.89-.785 10.072 10.072 0 0 1-3.166-2.132 10.07 10.07 0 0 1-2.132-3.166A9.711 9.711 0 0 1 .894 10c0-1.38.261-2.676.785-3.89a10.072 10.072 0 0 1 2.132-3.166A10.072 10.072 0 0 1 6.977.812a9.712 9.712 0 0 1 3.89-.785c1.38 0 2.676.261 3.89.785a10.072 10.072 0 0 1 3.166 2.132 10.072 10.072 0 0 1 2.132 3.166A9.712 9.712 0 0 1 20.84 10c0 1.38-.261 2.676-.785 3.89a10.071 10.071 0 0 1-2.132 3.166 10.072 10.072 0 0 1-3.166 2.132 9.712 9.712 0 0 1-3.89.785Zm0-1.994c2.227 0 4.114-.773 5.66-2.32 1.546-1.545 2.319-3.432 2.319-5.659s-.773-4.114-2.32-5.66c-1.545-1.546-3.432-2.319-5.659-2.319s-4.114.773-5.66 2.32C3.661 5.885 2.888 7.772 2.888 10s.773 4.114 2.319 5.66c1.546 1.546 3.433 2.319 5.66 2.319Z" fill="#4A5568"/></symbol></defs></svg>