<svg xmlns="http://www.w3.org/2000/svg" aria-hidden="true" style="width:0;height:0;position:absolute;overflow:hidden"><defs><symbol id="download-icon" viewBox="0 0 17 16" fill="none"><path fill-rule="evenodd" clip-rule="evenodd" d="M2.5 9.333c.368 0 .667.299.667.667v2.667a.667.667 0 0 0 .666.666h9.334a.667.667 0 0 0 .666-.666V10a.667.667 0 1 1 1.334 0v2.667a2 2 0 0 1-2 2H3.833a2 2 0 0 1-2-2V10c0-.368.299-.667.667-.667Z" fill="#3182CE"/><path fill-rule="evenodd" clip-rule="evenodd" d="M4.695 6.195c.26-.26.683-.26.943 0L8.5 9.057l2.862-2.862a.667.667 0 1 1 .943.943L8.97 10.471a.667.667 0 0 1-.942 0L4.695 7.138a.667.667 0 0 1 0-.943Z" fill="#3182CE"/><path fill-rule="evenodd" clip-rule="evenodd" d="M8.5 1.333c.368 0 .667.299.667.667v8a.667.667 0 0 1-1.334 0V2c0-.368.299-.667.667-.667Z" fill="#3182CE"/></symbol></defs></svg>