<svg xmlns="http://www.w3.org/2000/svg" aria-hidden="true" style="width:0;height:0;position:absolute;overflow:hidden"><defs><symbol id="people" viewBox="0 0 25 24" fill="none"><mask id="mask0_2996_16661" style="mask-type:alpha" maskUnits="userSpaceOnUse" x="0" y="0" width="25" height="24"><path fill="#D9D9D9" d="M.165.032h23.936v23.936H.165z"/></mask><g mask="url('#mask0_2996_16661')"><path d="M12.632 11.95a5.671 5.671 0 0 0 1.11-1.82 5.943 5.943 0 0 0 .386-2.12c0-.73-.13-1.437-.387-2.119a5.671 5.671 0 0 0-1.11-1.82 3.928 3.928 0 0 1 2.494 1.322c.665.748.997 1.62.997 2.618 0 .997-.332 1.87-.997 2.618a3.927 3.927 0 0 1-2.493 1.321Zm5.485 8.029v-2.992c0-.598-.133-1.168-.399-1.708a5.093 5.093 0 0 0-1.047-1.434c.848.3 1.633.686 2.356 1.16.723.473 1.085 1.134 1.085 1.982v2.992h-1.995Zm1.995-6.981v-1.995h-1.995V9.008h1.995V7.014h1.994v1.994h1.995v1.995h-1.995v1.995h-1.994ZM8.144 12c-1.097 0-2.037-.39-2.818-1.172-.781-.78-1.172-1.72-1.172-2.817 0-1.097.39-2.036 1.172-2.818.781-.78 1.72-1.172 2.818-1.172 1.097 0 2.036.391 2.817 1.172.781.782 1.172 1.72 1.172 2.818 0 1.097-.39 2.036-1.172 2.817C10.18 11.61 9.241 12 8.144 12ZM.164 19.98v-2.793c0-.565.146-1.084.437-1.558a2.91 2.91 0 0 1 1.16-1.085 14.81 14.81 0 0 1 3.141-1.159 13.725 13.725 0 0 1 3.242-.386c1.097 0 2.177.128 3.241.386a14.81 14.81 0 0 1 3.142 1.16c.482.249.868.61 1.159 1.084.29.474.436.993.436 1.558v2.793H.165Zm7.98-9.973a1.92 1.92 0 0 0 1.408-.586c.391-.391.586-.86.586-1.41a1.92 1.92 0 0 0-.586-1.408 1.92 1.92 0 0 0-1.408-.586 1.92 1.92 0 0 0-1.41.586c-.39.39-.585.86-.585 1.409 0 .548.195 1.018.586 1.409.39.39.86.585 1.409.585ZM2.16 17.983h11.968v-.798a.971.971 0 0 0-.499-.848 13 13 0 0 0-2.718-1.01 11.57 11.57 0 0 0-5.535 0 13 13 0 0 0-2.718 1.01.971.971 0 0 0-.498.848v.798Z" fill="#1A202C"/></g></symbol></defs></svg>