<svg xmlns="http://www.w3.org/2000/svg" aria-hidden="true" style="width:0;height:0;position:absolute;overflow:hidden"><defs><symbol id="calendar-icon" viewBox="0 0 18 18"><path d="M6 7.333H4.667v1.334H6V7.333Zm2.667 0H7.333v1.334h1.334V7.333Zm2.666 0H10v1.334h1.333V7.333Zm1.334-4.666H12V1.333h-1.333v1.334H5.333V1.333H4v1.334h-.667c-.74 0-1.326.6-1.326 1.333L2 13.333a1.333 1.333 0 0 0 1.333 1.334h9.334c.733 0 1.333-.6 1.333-1.334V4c0-.733-.6-1.333-1.333-1.333Zm0 10.666H3.333V6h9.334v7.333Z" fill="#3182CE"/></symbol></defs></svg>