
<svg xmlns="http://www.w3.org/2000/svg" aria-hidden="true" style="position:absolute;width:0;height:0;overflow:hidden">
    <defs>
        <symbol id="plus" viewBox="0 0 20 20">
            <path d="M9.00268 14.9867H10.9974V10.9974H14.9867V9.00268H10.9974V5.01331H9.00268V9.00268H5.01331V10.9974H9.00268V14.9867ZM10 19.9734C8.62036 19.9734 7.32382 19.7116 6.11039 19.188C4.89696 18.6644 3.84144 17.9538 2.94383 17.0562C2.04623 16.1586 1.33562 15.1031 0.812017 13.8896C0.288413 12.6762 0.0266113 11.3797 0.0266113 10C0.0266113 8.62036 0.288413 7.32382 0.812017 6.11039C1.33562 4.89696 2.04623 3.84144 2.94383 2.94383C3.84144 2.04623 4.89696 1.33562 6.11039 0.812017C7.32382 0.288413 8.62036 0.0266113 10 0.0266113C11.3797 0.0266113 12.6762 0.288413 13.8896 0.812017C15.1031 1.33562 16.1586 2.04623 17.0562 2.94383C17.9538 3.84144 18.6644 4.89696 19.188 6.11039C19.7116 7.32382 19.9734 8.62036 19.9734 10C19.9734 11.3797 19.7116 12.6762 19.188 13.8896C18.6644 15.1031 17.9538 16.1586 17.0562 17.0562C16.1586 17.9538 15.1031 18.6644 13.8896 19.188C12.6762 19.7116 11.3797 19.9734 10 19.9734ZM10 17.9787C12.2274 17.9787 14.114 17.2058 15.6599 15.6599C17.2058 14.114 17.9787 12.2274 17.9787 10C17.9787 7.77262 17.2058 5.88599 15.6599 4.34011C14.114 2.79423 12.2274 2.02129 10 2.02129C7.77262 2.02129 5.88599 2.79423 4.34011 4.34011C2.79423 5.88599 2.02129 7.77262 2.02129 10C2.02129 12.2274 2.79423 14.114 4.34011 15.6599C5.88599 17.2058 7.77262 17.9787 10 17.9787Z" fill="#4A5568"></path>
        </symbol>
    </defs>
</svg>