
<svg xmlns="http://www.w3.org/2000/svg" aria-hidden="true" style="position:absolute;width:0;height:0;overflow:hidden">
    <defs>
        <symbol id="minus" viewBox="0 0 21 20">
            <path d="M5.88026 10.9974H15.8537V9.00268H5.88026V10.9974ZM10.867 19.9734C9.4873 19.9734 8.19076 19.7116 6.97733 19.188C5.7639 18.6644 4.70838 17.9538 3.81078 17.0562C2.91317 16.1586 2.20256 15.1031 1.67896 13.8896C1.15536 12.6762 0.893555 11.3797 0.893555 10C0.893555 8.62036 1.15536 7.32382 1.67896 6.11039C2.20256 4.89696 2.91317 3.84144 3.81078 2.94383C4.70838 2.04623 5.7639 1.33562 6.97733 0.812017C8.19076 0.288413 9.4873 0.0266113 10.867 0.0266113C12.2466 0.0266113 13.5432 0.288413 14.7566 0.812017C15.97 1.33562 17.0255 2.04623 17.9231 2.94383C18.8207 3.84144 19.5314 4.89696 20.055 6.11039C20.5786 7.32382 20.8404 8.62036 20.8404 10C20.8404 11.3797 20.5786 12.6762 20.055 13.8896C19.5314 15.1031 18.8207 16.1586 17.9231 17.0562C17.0255 17.9538 15.97 18.6644 14.7566 19.188C13.5432 19.7116 12.2466 19.9734 10.867 19.9734ZM10.867 17.9787C13.0944 17.9787 14.981 17.2058 16.5269 15.6599C18.0727 14.114 18.8457 12.2274 18.8457 10C18.8457 7.77262 18.0727 5.88599 16.5269 4.34011C14.981 2.79423 13.0944 2.02129 10.867 2.02129C8.63956 2.02129 6.75293 2.79423 5.20705 4.34011C3.66117 5.88599 2.88824 7.77262 2.88824 10C2.88824 12.2274 3.66117 14.114 5.20705 15.6599C6.75293 17.2058 8.63956 17.9787 10.867 17.9787Z" fill="#4A5568"></path>
        </symbol>
    </defs>
</svg>