<!-- <svg width="17" height="16" viewBox="0 0 17 16" fill="none" xmlns="http://www.w3.org/2000/svg">
<path fill-rule="evenodd" clip-rule="evenodd" d="M2.49992 9.33325C2.86811 9.33325 3.16659 9.63173 3.16659 9.99992V12.6666C3.16659 12.8434 3.23682 13.013 3.36185 13.138C3.48687 13.263 3.65644 13.3333 3.83325 13.3333H13.1666C13.3434 13.3333 13.513 13.263 13.638 13.138C13.763 13.013 13.8333 12.8434 13.8333 12.6666V9.99992C13.8333 9.63173 14.1317 9.33325 14.4999 9.33325C14.8681 9.33325 15.1666 9.63173 15.1666 9.99992V12.6666C15.1666 13.197 14.9559 13.7057 14.5808 14.0808C14.2057 14.4559 13.697 14.6666 13.1666 14.6666H3.83325C3.30282 14.6666 2.79411 14.4559 2.41904 14.0808C2.04397 13.7057 1.83325 13.197 1.83325 12.6666V9.99992C1.83325 9.63173 2.13173 9.33325 2.49992 9.33325Z" fill="#3182CE"/>
<path fill-rule="evenodd" clip-rule="evenodd" d="M4.69526 6.19526C4.95561 5.93491 5.37772 5.93491 5.63807 6.19526L8.5 9.05719L11.3619 6.19526C11.6223 5.93491 12.0444 5.93491 12.3047 6.19526C12.5651 6.45561 12.5651 6.87772 12.3047 7.13807L8.9714 10.4714C8.71106 10.7318 8.28894 10.7318 8.0286 10.4714L4.69526 7.13807C4.43491 6.87772 4.43491 6.45561 4.69526 6.19526Z" fill="#3182CE"/>
<path fill-rule="evenodd" clip-rule="evenodd" d="M8.49992 1.33325C8.86811 1.33325 9.16659 1.63173 9.16659 1.99992V9.99992C9.16659 10.3681 8.86811 10.6666 8.49992 10.6666C8.13173 10.6666 7.83325 10.3681 7.83325 9.99992V1.99992C7.83325 1.63173 8.13173 1.33325 8.49992 1.33325Z" fill="#3182CE"/>
</svg> -->

<svg xmlns="http://www.w3.org/2000/svg" aria-hidden="true" style="position:absolute;width:0;height:0;overflow:hidden">
    <defs>
        <symbol id="download-icon" viewBox="0 0 17 16" fill="none">
            <path fill-rule="evenodd" clip-rule="evenodd" d="M2.49992 9.33325C2.86811 9.33325 3.16659 9.63173 3.16659 9.99992V12.6666C3.16659 12.8434 3.23682 13.013 3.36185 13.138C3.48687 13.263 3.65644 13.3333 3.83325 13.3333H13.1666C13.3434 13.3333 13.513 13.263 13.638 13.138C13.763 13.013 13.8333 12.8434 13.8333 12.6666V9.99992C13.8333 9.63173 14.1317 9.33325 14.4999 9.33325C14.8681 9.33325 15.1666 9.63173 15.1666 9.99992V12.6666C15.1666 13.197 14.9559 13.7057 14.5808 14.0808C14.2057 14.4559 13.697 14.6666 13.1666 14.6666H3.83325C3.30282 14.6666 2.79411 14.4559 2.41904 14.0808C2.04397 13.7057 1.83325 13.197 1.83325 12.6666V9.99992C1.83325 9.63173 2.13173 9.33325 2.49992 9.33325Z" fill="#3182CE"></path>
            <path fill-rule="evenodd" clip-rule="evenodd" d="M4.69526 6.19526C4.95561 5.93491 5.37772 5.93491 5.63807 6.19526L8.5 9.05719L11.3619 6.19526C11.6223 5.93491 12.0444 5.93491 12.3047 6.19526C12.5651 6.45561 12.5651 6.87772 12.3047 7.13807L8.9714 10.4714C8.71106 10.7318 8.28894 10.7318 8.0286 10.4714L4.69526 7.13807C4.43491 6.87772 4.43491 6.45561 4.69526 6.19526Z" fill="#3182CE"></path>
            <path fill-rule="evenodd" clip-rule="evenodd" d="M8.49992 1.33325C8.86811 1.33325 9.16659 1.63173 9.16659 1.99992V9.99992C9.16659 10.3681 8.86811 10.6666 8.49992 10.6666C8.13173 10.6666 7.83325 10.3681 7.83325 9.99992V1.99992C7.83325 1.63173 8.13173 1.33325 8.49992 1.33325Z" fill="#3182CE"> </path>
        </symbol>
    </defs>
</svg>