<!-- <svg width="25" height="24" viewBox="0 0 25 24" fill="none" xmlns="http://www.w3.org/2000/svg">
<mask id="mask0_2996_16661" style="mask-type:alpha" maskUnits="userSpaceOnUse" x="0" y="0" width="25" height="24">
<rect x="0.164917" y="0.0319824" width="23.9362" height="23.9362" fill="#D9D9D9"/>
</mask>
<g mask="url(#mask0_2996_16661)">
<path d="M12.6317 11.9503C13.1137 11.4184 13.4836 10.8117 13.7412 10.1302C13.9989 9.44868 14.1277 8.74223 14.1277 8.01085C14.1277 7.27946 13.9989 6.57301 13.7412 5.8915C13.4836 5.20998 13.1137 4.60327 12.6317 4.07135C13.629 4.20433 14.4601 4.64482 15.125 5.39283C15.7899 6.14083 16.1224 7.01351 16.1224 8.01085C16.1224 9.00819 15.7899 9.88086 15.125 10.6289C14.4601 11.3769 13.629 11.8174 12.6317 11.9503ZM18.117 19.9789V16.9869C18.117 16.3885 17.9841 15.8192 17.7181 15.279C17.4522 14.7387 17.1031 14.2608 16.6709 13.8453C17.5186 14.1445 18.304 14.531 19.0271 15.0047C19.7502 15.4784 20.1117 16.1392 20.1117 16.9869V19.9789H18.117ZM20.1117 12.9975V11.0029H18.117V9.00819H20.1117V7.01351H22.1064V9.00819H24.1011V11.0029H22.1064V12.9975H20.1117ZM8.14364 12.0002C7.04657 12.0002 6.1074 11.6096 5.32615 10.8283C4.5449 10.0471 4.15428 9.10792 4.15428 8.01085C4.15428 6.91377 4.5449 5.97461 5.32615 5.19336C6.1074 4.41211 7.04657 4.02148 8.14364 4.02148C9.24072 4.02148 10.1799 4.41211 10.9611 5.19336C11.7424 5.97461 12.133 6.91377 12.133 8.01085C12.133 9.10792 11.7424 10.0471 10.9611 10.8283C10.1799 11.6096 9.24072 12.0002 8.14364 12.0002ZM0.164917 19.9789V17.1864C0.164917 16.6212 0.310362 16.1018 0.601253 15.628C0.892144 15.1543 1.27861 14.7928 1.76066 14.5434C2.79125 14.0281 3.83845 13.6417 4.90228 13.384C5.96611 13.1264 7.04657 12.9975 8.14364 12.9975C9.24072 12.9975 10.3212 13.1264 11.385 13.384C12.4488 13.6417 13.496 14.0281 14.5266 14.5434C15.0087 14.7928 15.3951 15.1543 15.686 15.628C15.9769 16.1018 16.1224 16.6212 16.1224 17.1864V19.9789H0.164917ZM8.14364 10.0055C8.69218 10.0055 9.16176 9.81021 9.55238 9.41959C9.94301 9.02896 10.1383 8.55938 10.1383 8.01085C10.1383 7.46231 9.94301 6.99273 9.55238 6.6021C9.16176 6.21148 8.69218 6.01617 8.14364 6.01617C7.5951 6.01617 7.12552 6.21148 6.7349 6.6021C6.34427 6.99273 6.14896 7.46231 6.14896 8.01085C6.14896 8.55938 6.34427 9.02896 6.7349 9.41959C7.12552 9.81021 7.5951 10.0055 8.14364 10.0055ZM2.1596 17.9843H14.1277V17.1864C14.1277 17.0035 14.082 16.8373 13.9905 16.6877C13.8991 16.5381 13.7786 16.4218 13.629 16.3386C12.7314 15.8898 11.8255 15.5532 10.9113 15.3288C9.99703 15.1044 9.07449 14.9922 8.14364 14.9922C7.21279 14.9922 6.29025 15.1044 5.37602 15.3288C4.46179 15.5532 3.55587 15.8898 2.65827 16.3386C2.50867 16.4218 2.38816 16.5381 2.29673 16.6877C2.20531 16.8373 2.1596 17.0035 2.1596 17.1864V17.9843Z" fill="#1A202C"/>
</g>
</svg> -->

<svg xmlns="http://www.w3.org/2000/svg" aria-hidden="true" style="position:absolute;width:0;height:0;overflow:hidden">
    <defs>
        <symbol id="people" viewBox="0 0 25 24" fill="none">
            <mask id="mask0_2996_16661" style="mask-type:alpha" maskUnits="userSpaceOnUse" x="0" y="0" width="25" height="24">
<rect x="0.164917" y="0.0319824" width="23.9362" height="23.9362" fill="#D9D9D9"/>
</mask>
<g mask="url(#mask0_2996_16661)">
<path d="M12.6317 11.9503C13.1137 11.4184 13.4836 10.8117 13.7412 10.1302C13.9989 9.44868 14.1277 8.74223 14.1277 8.01085C14.1277 7.27946 13.9989 6.57301 13.7412 5.8915C13.4836 5.20998 13.1137 4.60327 12.6317 4.07135C13.629 4.20433 14.4601 4.64482 15.125 5.39283C15.7899 6.14083 16.1224 7.01351 16.1224 8.01085C16.1224 9.00819 15.7899 9.88086 15.125 10.6289C14.4601 11.3769 13.629 11.8174 12.6317 11.9503ZM18.117 19.9789V16.9869C18.117 16.3885 17.9841 15.8192 17.7181 15.279C17.4522 14.7387 17.1031 14.2608 16.6709 13.8453C17.5186 14.1445 18.304 14.531 19.0271 15.0047C19.7502 15.4784 20.1117 16.1392 20.1117 16.9869V19.9789H18.117ZM20.1117 12.9975V11.0029H18.117V9.00819H20.1117V7.01351H22.1064V9.00819H24.1011V11.0029H22.1064V12.9975H20.1117ZM8.14364 12.0002C7.04657 12.0002 6.1074 11.6096 5.32615 10.8283C4.5449 10.0471 4.15428 9.10792 4.15428 8.01085C4.15428 6.91377 4.5449 5.97461 5.32615 5.19336C6.1074 4.41211 7.04657 4.02148 8.14364 4.02148C9.24072 4.02148 10.1799 4.41211 10.9611 5.19336C11.7424 5.97461 12.133 6.91377 12.133 8.01085C12.133 9.10792 11.7424 10.0471 10.9611 10.8283C10.1799 11.6096 9.24072 12.0002 8.14364 12.0002ZM0.164917 19.9789V17.1864C0.164917 16.6212 0.310362 16.1018 0.601253 15.628C0.892144 15.1543 1.27861 14.7928 1.76066 14.5434C2.79125 14.0281 3.83845 13.6417 4.90228 13.384C5.96611 13.1264 7.04657 12.9975 8.14364 12.9975C9.24072 12.9975 10.3212 13.1264 11.385 13.384C12.4488 13.6417 13.496 14.0281 14.5266 14.5434C15.0087 14.7928 15.3951 15.1543 15.686 15.628C15.9769 16.1018 16.1224 16.6212 16.1224 17.1864V19.9789H0.164917ZM8.14364 10.0055C8.69218 10.0055 9.16176 9.81021 9.55238 9.41959C9.94301 9.02896 10.1383 8.55938 10.1383 8.01085C10.1383 7.46231 9.94301 6.99273 9.55238 6.6021C9.16176 6.21148 8.69218 6.01617 8.14364 6.01617C7.5951 6.01617 7.12552 6.21148 6.7349 6.6021C6.34427 6.99273 6.14896 7.46231 6.14896 8.01085C6.14896 8.55938 6.34427 9.02896 6.7349 9.41959C7.12552 9.81021 7.5951 10.0055 8.14364 10.0055ZM2.1596 17.9843H14.1277V17.1864C14.1277 17.0035 14.082 16.8373 13.9905 16.6877C13.8991 16.5381 13.7786 16.4218 13.629 16.3386C12.7314 15.8898 11.8255 15.5532 10.9113 15.3288C9.99703 15.1044 9.07449 14.9922 8.14364 14.9922C7.21279 14.9922 6.29025 15.1044 5.37602 15.3288C4.46179 15.5532 3.55587 15.8898 2.65827 16.3386C2.50867 16.4218 2.38816 16.5381 2.29673 16.6877C2.20531 16.8373 2.1596 17.0035 2.1596 17.1864V17.9843Z" fill="#1A202C"/>
</g>
        </symbol>
    </defs>
</svg>